# AST/ASF file generated using VICON BodyLanguage
# -----------------------------------------------
:version 1.10
:name VICON
:units
  mass 1.0
  length 0.45
  angle deg
:documentation
   .ast/.asf automatically generated from VICON data using
   VICON BodyBuilder and BodyLanguage model FoxedUp or BRILLIANT.MOD
:root
   order TX TY TZ RX RY RZ
   axis XYZ
   position 0 0 0  
   orientation 0 0 0 
:bonedata
  begin
     id 1 
     name lhipjoint
     direction 0.603808 -0.713975 0.35448 
     length 2.2025 
     axis 0 0 0  XYZ
  end
  begin
     id 2 
     name lfemur
     direction 0.34202 -0.939693 0  
     length 6.55877  
     axis 0 0 20  XYZ
    dof rx ry rz
    limits (-160.0 20.0)
           (-70.0 70.0)
           (-60.0 70.0)
  end
  begin
     id 3 
     name ltibia
     direction 0.34202 -0.939693 0   
     length 6.80302   
     axis 0 0 20   XYZ
    dof rx
    limits (-10.0 170.0)
  end
  begin
     id 4 
     name lfoot
     direction 0.091848 -0.25235 0.963267   
     length 2.03446   
     axis -90 7.62852e-016 20   XYZ
    dof rx rz
    limits (-45.0 90.0)
           (-70.0 20.0)
  end
  begin
     id 5 
     name ltoes
     direction 1.53608e-011 -4.21925e-011 1   
     length 1.02033   
     axis -90 7.62852e-016 20   XYZ
    dof rx
    limits (-90.0 20.0)
  end
  begin
     id 6 
     name rhipjoint
     direction -0.587285 -0.724947 0.359928   
     length 2.16916  
     axis 0 0 0  XYZ 
  end
  begin
     id 7 
     name rfemur
     direction -0.34202 -0.939693 0   
     length 6.43173   
     axis 0 0 -20   XYZ
    dof rx ry rz
    limits (-160.0 20.0)
           (-70.0 70.0)
           (-70.0 60.0)
  end
  begin
     id 8 
     name rtibia
     direction -0.34202 -0.939693 0   
     length 6.70662   
     axis 0 0 -20   XYZ
    dof rx
    limits (-10.0 170.0)
 end
 begin
     id 9 
     name rfoot
     direction -0.11854 -0.325686 0.938018   
     length 2.0773  
     axis -90 -7.62852e-016 -20   XYZ
    dof rx rz
    limits (-45.0 90.0)
           (-20.0 70.0)
  end
  begin
     id 10 
     name rtoes
     direction -1.53547e-011 -4.21838e-011 1   
     length 1.03267   
     axis -90 -7.62852e-016 -20   XYZ
    dof rx
    limits (-90.0 20.0)
  end
  begin
     id 11 
     name lowerback
     direction -0.0286554 0.999539 0.0100613   
     length 2.08751   
     axis 0 0 0   XYZ
    dof rx ry rz
    limits (-20.0 45.0)
           (-30.0 30.0)
           (-30.0 30.0)
  end
  begin
     id 12 
     name upperback
     direction 0.0227093 0.999705 -0.00860929   
     length 2.08517   
     axis 0 0 0   XYZ
    dof rx ry rz
    limits (-20.0 45.0)
           (-30.0 30.0)
           (-30.0 30.0)
  end
  begin
     id 13 
     name thorax
     direction 0.0351627 0.999285 -0.013892   
     length 2.08412   
     axis 0 0 0   XYZ
    dof rx ry rz
    limits (-20.0 45.0)
           (-30.0 30.0)
           (-30.0 30.0)
  end
  begin
     id 14 
     name lowerneck
     direction -0.0696283 0.997344 0.0213922   
     length 1.44164   
     axis 0 0 0   XYZ
    dof rx ry rz
    limits (-20.0 45.0)
           (-30.0 30.0)
           (-30.0 30.0)
  end
  begin
     id 15 
     name upperneck
     direction 0.0531 0.990412 -0.127531   
     length 1.45022   
     axis 0 0 0   XYZ
    dof rx ry rz
    limits (-20.0 45.0)
           (-30.0 30.0)
           (-30.0 30.0)
  end
  begin
     id 16
     name head
     direction 0.0188154 0.998548 -0.0504727  
     length 1.45845  
     axis 0 0 0   XYZ
    dof rx ry rz
    limits (-20.0 45.0)
           (-30.0 30.0)
           (-30.0 30.0)
  end
  begin
     id 17 
     name lclavicle
     direction 0.961559 0.260051 0.088188  
     length 2.86057  
     axis 0 0 0   XYZ
    dof ry rz
    limits (-20.0 10.0)
           (0.0 20.0)
  end
  begin
     id 18 
     name lhumerus
     direction 1 -4.48959e-011 2.88185e-027   
     length 4.36901   
     axis 180 -30 -90   XYZ
    dof rx ry rz
    limits (-60.0 90.0)
           (-90.0 90.0)
           (-90.0 90.0)
  end
  begin
     id 19
     name lradius
     direction 1 -4.48965e-011 -3.92618e-028   
     length 3.21737   
     axis 180 -30 -90   XYZ
    dof rx
    limits (-10.0 170.0)
  end
  begin
     id 20
     name lwrist
     direction 1 -4.49037e-011 2.57246e-027   
     length 1.60869   
     axis -1.61769e-015 90 90   XYZ
    dof ry
    limits (-180.0 0.0)
 end
  begin
     id 21 
     name lhand
     direction 1 -4.48807e-011 5.12958e-027   
     length 0.564313   
     axis -3.27988e-015 90 90   XYZ
    dof rx rz
    limits (-90.0 90.0)
           (-45.0 45.0)
  end
  begin
     id 22 
     name lfingers
     direction 1 -4.48879e-011 1.02687e-026   
     length 0.454963   
     axis -6.5598e-015 90 90   XYZ
    dof rx
    limits (0.0 90.0)
  end
  begin
     id 23
     name lthumb
     direction 0.707107 -6.3475e-011 0.707107   
     length 0.653239   
     axis -90 45 2.19363e-014   XYZ
    dof rx rz
    limits (-45.0 45.0)
           (-45.0 45.0)
  end
  begin
     id 24 
     name rclavicle
     direction -0.954677 0.253915 0.155304   
     length 3.11497  
     axis 0 0 0   XYZ 
    dof ry rz
    limits (-10.0 20.0)
           (-20.0 0.0)
  end
  begin
     id 25 
     name rhumerus
     direction -1 -4.48958e-011 -8.20169e-028  
     length 4.34118   
     axis 180 30 90   XYZ
    dof rx ry rz
    limits (-90.0 60.0)
           (-90.0 90.0)
           (-90.0 90.0)
  end
  begin
     id 26 
     name rradius
     direction -1 -4.48978e-011 1.5676e-027   
     length 3.09531   
     axis 180 30 90   XYZ
    dof rx
    limits (-10.0 170.0)
  end
  begin
     id 27 
     name rwrist
     direction -1 -4.49001e-011 2.57123e-027   
     length 1.54765   
     axis -1.61769e-015 -90 -90   XYZ
    dof ry
    limits (-180.0 0.0)
  end
  begin
     id 28
     name rhand
     direction -1 -4.48847e-011 5.13225e-027   
     length 0.597446   
     axis -3.27988e-015 -90 -90   XYZ
    dof rx rz
    limits (-90.0 90.0)
           (-45.0 45.0)
  end
  begin
     id 29
     name rfingers
     direction -1 -4.49094e-011 1.02974e-026   
     length 0.481677   
     axis -6.5598e-015 -90 -90   XYZ
    dof rx
    limits (0.0 90.0)
  end
  begin
     id 30
     name rthumb
     direction -0.707107 -6.34859e-011 0.707107   
     length 0.691594   
     axis -90 -45 -2.19363e-014   XYZ
    dof rx rz
    limits (-45.0 45.0)
           (-45.0 45.0)
  end
:hierarchy
  begin
    root lhipjoint rhipjoint lowerback
    lhipjoint lfemur
    lfemur ltibia
    ltibia lfoot
    lfoot ltoes
    rhipjoint rfemur
    rfemur rtibia
    rtibia rfoot
    rfoot rtoes
    lowerback upperback
    upperback thorax
    thorax lowerneck lclavicle rclavicle
    lowerneck upperneck
    upperneck head
    lclavicle lhumerus
    lhumerus lradius
    lradius lwrist
    lwrist lhand lthumb
    lhand lfingers
    rclavicle rhumerus
    rhumerus rradius
    rradius rwrist
    rwrist rhand rthumb
    rhand rfingers
  end

#!OML:ASF E:\I on waltz\Acrobat_Osman\acrobat\cartwheel_test 2\Patient 1\Session 1\acrobat.ASF
:FULLY-SPECIFIED
:DEGREES
214
root 4.10597 15.4457 10.1387 -1.79804 -70.2748 2.46779
lowerback 4.61778 0.590682 -4.25927
upperback 0.115107 0.602156 1.78503
thorax -2.5367 0.359924 4.20022
lowerneck -10.1409 -3.38608 -7.46192
upperneck 11.4289 -3.86322 3.17009
head 5.31619 -2.00875 1.90691
rclavicle -1.60767e-014 -4.77083e-015
rhumerus -43.2144 -18.5637 -53.6186
rradius 26.006
rwrist 6.52187
rhand -24.4191 19.2678
rfingers 7.12502
rthumb 2.07262 -10.7019
lclavicle -1.60767e-014 -4.77083e-015
lhumerus -41.4635 3.03296 76.723
lradius 69.9774
lwrist 36.498
lhand -16.8123 49.9438
lfingers 7.12502
lthumb 9.41646 79.7134
rfemur -14.0943 1.41436 21.209
rtibia 38.4629
rfoot -26.671 -12.7741
rtoes -6.7959
lfemur -21.805 8.5986 -7.7869
ltibia 66.4353
lfoot -2.71522 6.53126
ltoes 7.24788
215
root 4.00053 15.4528 10.0949 -2.35364 -71.1753 3.01225
lowerback 4.79104 0.613294 -4.22243
upperback 0.154374 0.626822 1.76574
thorax -2.5953 0.37208 4.15681
lowerneck -9.95837 -3.09734 -7.16382
upperneck 10.9818 -3.4934 2.93185
head 5.11647 -1.82661 1.81727
rclavicle 1.91827e-014 -7.95139e-016
rhumerus -42.39 -16.0823 -55.1087
rradius 27.365
rwrist 4.38149
rhand -24.1292 19.6324
rfingers 7.12502
rthumb 2.35259 -10.3344
lclavicle 1.91827e-014 -7.95139e-016
lhumerus -42.1489 2.5867 76.9396
lradius 68.1184
lwrist 35.9253
lhand -15.837 49.6433
lfingers 7.12502
lthumb 10.3574 79.3682
rfemur -13.6067 2.04781 21.4098
rtibia 38.2651
rfoot -27.0419 -12.3872
rtoes -5.64981
lfemur -23.3094 9.5456 -8.77964
ltibia 67.7819
lfoot -3.05406 6.70554
ltoes 7.86412
216
root 3.89533 15.4523 10.054 -3.31154 -72.1556 4.02127
lowerback 4.89323 0.665709 -4.28906
upperback 0.216244 0.686526 1.65861
thorax -2.59431 0.40067 4.07824
lowerneck -9.71079 -2.83757 -6.79358
upperneck 10.5027 -3.18519 2.74547
head 4.90104 -1.66802 1.72715
rclavicle -9.36773e-015 4.77083e-015
rhumerus -41.5837 -14.0493 -56.5419
rradius 28.7293
rwrist 2.69882
rhand -23.8908 20.0283
rfingers 7.12502
rthumb 2.5828 -9.9358
lclavicle -9.36773e-015 4.77083e-015
lhumerus -42.7342 1.81148 77.2979
lradius 65.7665
lwrist 34.9035
lhand -15.3949 49.51
lfingers 7.12502
lthumb 10.7839 79.2132
rfemur -13.2945 2.6682 21.491
rtibia 38.2427
rfoot -27.2992 -12.2978
rtoes -5.94362
lfemur -24.7889 10.4228 -10.0821
ltibia 68.5356
lfoot -3.57724 5.84944
ltoes 7.60836
217
root 3.79171 15.4471 10.0168 -4.51347 -73.1975 5.35913
lowerback 4.96886 0.71744 -4.47969
upperback 0.223242 0.739904 1.58594
thorax -2.6366 0.430133 4.10617
lowerneck -9.46576 -2.56499 -6.52084
upperneck 10.1766 -2.84636 2.54517
head 4.73583 -1.50135 1.64907
rclavicle -1.40392e-014 -1.63003e-014
rhumerus -40.7424 -12.137 -57.8735
rradius 30.1378
rwrist 1.0893
rhand -23.5131 20.2429
rfingers 7.12502
rthumb 2.94755 -9.71648
lclavicle -1.40392e-014 -1.63003e-014
lhumerus -43.342 0.908475 77.8886
lradius 62.9328
lwrist 33.2299
lhand -15.2556 49.2737
lfingers 7.12502
lthumb 10.9182 78.9699
rfemur -13.163 3.19996 21.4649
rtibia 38.3987
rfoot -27.7215 -12.1178
rtoes -6.34005
lfemur -26.2761 11.1179 -11.6293
ltibia 68.6952
lfoot -4.75749 4.51403
ltoes 5.75249
218
root 3.68842 15.4336 9.98923 -5.81659 -74.2423 6.85682
lowerback 5.04131 0.755587 -4.77382
upperback 0.150817 0.772606 1.67615
thorax -2.76131 0.455689 4.36393
lowerneck -9.33839 -2.31581 -6.48331
upperneck 10.1279 -2.48651 2.20994
head 4.67885 -1.34486 1.56573
rclavicle 1.57785e-014 1.19271e-014
rhumerus -39.9752 -10.2188 -58.9636
rradius 31.6828
rwrist -0.65271
rhand -23.4278 20.1515
rfingers 7.12502
rthumb 3.02996 -9.80675
lclavicle 1.57785e-014 1.19271e-014
lhumerus -43.9962 0.193008 78.8656
lradius 59.657
lwrist 31.015
lhand -15.2732 48.6952
lfingers 7.12502
lthumb 10.9012 78.3923
rfemur -13.1144 3.58777 21.3321
rtibia 38.664
rfoot -28.4197 -11.4482
rtoes -5.6448
lfemur -27.7714 11.6011 -13.309
ltibia 68.3137
lfoot -6.55629 3.18724
ltoes 4.06858
